# xmcd
#
# Track frame offsets:
# 150
# 25755
# 69057
# 108325
# 138340
# 165495
# 191290
#
# Disc length: 2852 seconds
#
#
# Revision: 0
# Processed by: cddbd v1.5.2PL0 Copyright (c) Steve Scherf et al.
# Submitted via: Nero 7, 11, 10, 0 
#
DISCID=4b0b2207
DTITLE=J.B. Hutto - Hipshakin' - Live in London
DYEAR=1972
DGENRE=Blues
TTITLE0=Guitar Workout
TTITLE1=Pet' Cream Man
TTITLE2=Hipshakin
TTITLE3=Too Much Alcohol
TTITLE4=Walkin' And Talkin'
TTITLE5=Dim Light's
TTITLE6=Combination Boogie
EXTD=
EXTT0=Guitar Workout
EXTT1=Pet' Cream Man
EXTT2=Hipshakin
EXTT3=Too Much Alcohol
EXTT4=Walkin' And Talkin'
EXTT5=Dim Light's
EXTT6=Combination Boogie
PLAYORDER=
